solid OpenSCAD_Model
  facet normal 1 -0 0
    outer loop
      vertex 10 10 50
      vertex 10 85 0
      vertex 10 85 50
    endloop
  endfacet
  facet normal 1 0 0
    outer loop
      vertex 10 85 0
      vertex 10 10 50
      vertex 10 10 0
    endloop
  endfacet
  facet normal 0 0 1
    outer loop
      vertex 10 85 50
      vertex 0 85 50
      vertex 10 10 50
    endloop
  endfacet
  facet normal 0 0 1
    outer loop
      vertex 61 85 50
      vertex 51 85 50
      vertex 61 10 50
    endloop
  endfacet
  facet normal -0 0 1
    outer loop
      vertex 89.2709 -11.8653 50
      vertex 101 -20 50
      vertex 101 10 50
    endloop
  endfacet
  facet normal 0 -0 1
    outer loop
      vertex 91 -20 50
      vertex 101 -20 50
      vertex 90.563 -15.8418 50
    endloop
  endfacet
  facet normal 0 0 1
    outer loop
      vertex 101 -20 50
      vertex 91 -20 50
      vertex 100.344 -26.2374 50
    endloop
  endfacet
  facet normal 0 0 1
    outer loop
      vertex 100.344 -26.2374 50
      vertex 90.563 -24.1582 50
      vertex 98.4064 -32.2021 50
    endloop
  endfacet
  facet normal -0 0 1
    outer loop
      vertex 89.2709 -28.1347 50
      vertex 98.4064 -32.2021 50
      vertex 90.563 -24.1582 50
    endloop
  endfacet
  facet normal -0 0 1
    outer loop
      vertex 90.563 -24.1582 50
      vertex 100.344 -26.2374 50
      vertex 91 -20 50
    endloop
  endfacet
  facet normal 0 0 1
    outer loop
      vertex 101 -20 50
      vertex 89.2709 -11.8653 50
      vertex 90.563 -15.8418 50
    endloop
  endfacet
  facet normal 0 0 1
    outer loop
      vertex 101 10 50
      vertex 87.1803 -8.24429 50
      vertex 89.2709 -11.8653 50
    endloop
  endfacet
  facet normal 0 0 1
    outer loop
      vertex 101 10 50
      vertex 84.3826 -5.1371 50
      vertex 87.1803 -8.24429 50
    endloop
  endfacet
  facet normal 0 0 1
    outer loop
      vertex 101 10 50
      vertex 81 -2.67949 50
      vertex 84.3826 -5.1371 50
    endloop
  endfacet
  facet normal 0 0 1
    outer loop
      vertex 101 10 50
      vertex 77.1803 -0.978869 50
      vertex 81 -2.67949 50
    endloop
  endfacet
  facet normal -0 0 1
    outer loop
      vertex 61 10 50
      vertex 77.1803 -0.978869 50
      vertex 101 10 50
    endloop
  endfacet
  facet normal 0 0 1
    outer loop
      vertex 77.1803 -0.978869 50
      vertex 61 10 50
      vertex 73.0906 -0.109562 50
    endloop
  endfacet
  facet normal 0 0 1
    outer loop
      vertex 73.0906 -0.109562 50
      vertex 61 10 50
      vertex 71 0 50
    endloop
  endfacet
  facet normal 0 0 1
    outer loop
      vertex 51 10 50
      vertex 61 10 50
      vertex 51 85 50
    endloop
  endfacet
  facet normal -0 0 1
    outer loop
      vertex 51 10 50
      vertex 71 0 50
      vertex 61 10 50
    endloop
  endfacet
  facet normal 0 0 1
    outer loop
      vertex 0 0 50
      vertex 51 10 50
      vertex 10 10 50
    endloop
  endfacet
  facet normal 0 0 1
    outer loop
      vertex 51 10 50
      vertex 0 0 50
      vertex 71 0 50
    endloop
  endfacet
  facet normal 0 0 1
    outer loop
      vertex 0 0 50
      vertex 10 10 50
      vertex 0 85 50
    endloop
  endfacet
  facet normal 0 0 1
    outer loop
      vertex 98.4064 -32.2021 50
      vertex 89.2709 -28.1347 50
      vertex 95.2705 -37.6336 50
    endloop
  endfacet
  facet normal -0 0 1
    outer loop
      vertex 87.1803 -31.7557 50
      vertex 95.2705 -37.6336 50
      vertex 89.2709 -28.1347 50
    endloop
  endfacet
  facet normal 0 0 1
    outer loop
      vertex 95.2705 -37.6336 50
      vertex 87.1803 -31.7557 50
      vertex 91.0739 -42.2943 50
    endloop
  endfacet
  facet normal -0 0 1
    outer loop
      vertex 84.3826 -34.8629 50
      vertex 91.0739 -42.2943 50
      vertex 87.1803 -31.7557 50
    endloop
  endfacet
  facet normal 0 0 1
    outer loop
      vertex 91.0739 -42.2943 50
      vertex 84.3826 -34.8629 50
      vertex 86 -45.9808 50
    endloop
  endfacet
  facet normal -0 0 1
    outer loop
      vertex 81 -37.3205 50
      vertex 86 -45.9808 50
      vertex 84.3826 -34.8629 50
    endloop
  endfacet
  facet normal 0 0 1
    outer loop
      vertex 81 -37.3205 50
      vertex 80.2705 -48.5317 50
      vertex 86 -45.9808 50
    endloop
  endfacet
  facet normal -0 0 1
    outer loop
      vertex 77.1803 -39.0211 50
      vertex 80.2705 -48.5317 50
      vertex 81 -37.3205 50
    endloop
  endfacet
  facet normal 0 0 1
    outer loop
      vertex 77.1803 -39.0211 50
      vertex 74.1359 -49.8357 50
      vertex 80.2705 -48.5317 50
    endloop
  endfacet
  facet normal -0 0 1
    outer loop
      vertex 73.0906 -39.8904 50
      vertex 74.1359 -49.8357 50
      vertex 77.1803 -39.0211 50
    endloop
  endfacet
  facet normal 0 0 1
    outer loop
      vertex 71 -40 50
      vertex 73.0906 -39.8904 50
      vertex 71 -39.8904 50
    endloop
  endfacet
  facet normal 0 0 1
    outer loop
      vertex 71 -49.8357 50
      vertex 73.0906 -39.8904 50
      vertex 71 -40 50
    endloop
  endfacet
  facet normal 0 0 1
    outer loop
      vertex 73.0906 -39.8904 50
      vertex 71 -49.8357 50
      vertex 74.1359 -49.8357 50
    endloop
  endfacet
  facet normal -0 0 1
    outer loop
      vertex 31 -40 50
      vertex 71 -49.8357 50
      vertex 71 -40 50
    endloop
  endfacet
  facet normal 0 0 1
    outer loop
      vertex 31 -50 50
      vertex 71 -49.8357 50
      vertex 31 -40 50
    endloop
  endfacet
  facet normal 0 0 1
    outer loop
      vertex 71 -49.8357 50
      vertex 31 -50 50
      vertex 71 -50 50
    endloop
  endfacet
  facet normal 0 0 1
    outer loop
      vertex 73.0906 -0.109562 50
      vertex 71 0 50
      vertex 71 -0.109562 50
    endloop
  endfacet
  facet normal 0 0 -1
    outer loop
      vertex 100.344 -26.2374 0
      vertex 90.563 -24.1582 0
      vertex 91 -20 0
    endloop
  endfacet
  facet normal 0 0 -1
    outer loop
      vertex 95.2705 -37.6336 0
      vertex 89.2709 -28.1347 0
      vertex 90.563 -24.1582 0
    endloop
  endfacet
  facet normal 0 0 -1
    outer loop
      vertex 95.2705 -37.6336 0
      vertex 87.1803 -31.7557 0
      vertex 89.2709 -28.1347 0
    endloop
  endfacet
  facet normal 0 0 -1
    outer loop
      vertex 84.3826 -34.8629 0
      vertex 91.0739 -42.2943 0
      vertex 86 -45.9808 0
    endloop
  endfacet
  facet normal 0 0 -1
    outer loop
      vertex 91.0739 -42.2943 0
      vertex 84.3826 -34.8629 0
      vertex 87.1803 -31.7557 0
    endloop
  endfacet
  facet normal 0 0 -1
    outer loop
      vertex 86 -45.9808 0
      vertex 81 -37.3205 0
      vertex 84.3826 -34.8629 0
    endloop
  endfacet
  facet normal 0 0 -1
    outer loop
      vertex 80.2705 -48.5317 0
      vertex 81 -37.3205 0
      vertex 86 -45.9808 0
    endloop
  endfacet
  facet normal 0 0 -1
    outer loop
      vertex 80.2705 -48.5317 0
      vertex 77.1803 -39.0211 0
      vertex 81 -37.3205 0
    endloop
  endfacet
  facet normal 0 0 -1
    outer loop
      vertex 74.1359 -49.8357 0
      vertex 77.1803 -39.0211 0
      vertex 80.2705 -48.5317 0
    endloop
  endfacet
  facet normal 0 0 -1
    outer loop
      vertex 74.1359 -49.8357 0
      vertex 73.0906 -39.8904 0
      vertex 77.1803 -39.0211 0
    endloop
  endfacet
  facet normal 0 0 -1
    outer loop
      vertex 71 -49.8357 0
      vertex 73.0906 -39.8904 0
      vertex 74.1359 -49.8357 0
    endloop
  endfacet
  facet normal 0 0 -1
    outer loop
      vertex 71 -40 0
      vertex 73.0906 -39.8904 0
      vertex 71 -49.8357 0
    endloop
  endfacet
  facet normal -0 0 -1
    outer loop
      vertex 73.0906 -39.8904 0
      vertex 71 -40 0
      vertex 71 -39.8904 0
    endloop
  endfacet
  facet normal 0 0 -1
    outer loop
      vertex 91 -20 0
      vertex 101 -20 0
      vertex 100.344 -26.2374 0
    endloop
  endfacet
  facet normal 0 0 -1
    outer loop
      vertex 90.563 -24.1582 0
      vertex 100.344 -26.2374 0
      vertex 98.4064 -32.2021 0
    endloop
  endfacet
  facet normal 0 0 -1
    outer loop
      vertex 90.563 -24.1582 0
      vertex 98.4064 -32.2021 0
      vertex 95.2705 -37.6336 0
    endloop
  endfacet
  facet normal 0 0 -1
    outer loop
      vertex 87.1803 -31.7557 0
      vertex 95.2705 -37.6336 0
      vertex 91.0739 -42.2943 0
    endloop
  endfacet
  facet normal 0 0 -1
    outer loop
      vertex 101 -20 0
      vertex 91 -20 0
      vertex 90.563 -15.8418 0
    endloop
  endfacet
  facet normal 0 0 -1
    outer loop
      vertex 89.2709 -11.8653 0
      vertex 101 -20 0
      vertex 90.563 -15.8418 0
    endloop
  endfacet
  facet normal 0 0 -1
    outer loop
      vertex 101 -20 0
      vertex 89.2709 -11.8653 0
      vertex 101 10 0
    endloop
  endfacet
  facet normal 0 0 -1
    outer loop
      vertex 87.1803 -8.24429 0
      vertex 101 10 0
      vertex 89.2709 -11.8653 0
    endloop
  endfacet
  facet normal 0 0 -1
    outer loop
      vertex 84.3826 -5.1371 0
      vertex 101 10 0
      vertex 87.1803 -8.24429 0
    endloop
  endfacet
  facet normal 0 0 -1
    outer loop
      vertex 81 -2.67949 0
      vertex 101 10 0
      vertex 84.3826 -5.1371 0
    endloop
  endfacet
  facet normal 0 0 -1
    outer loop
      vertex 77.1803 -0.978869 0
      vertex 101 10 0
      vertex 81 -2.67949 0
    endloop
  endfacet
  facet normal 0 0 -1
    outer loop
      vertex 61 10 0
      vertex 77.1803 -0.978869 0
      vertex 73.0906 -0.109562 0
    endloop
  endfacet
  facet normal 0 0 -1
    outer loop
      vertex 71 0 0
      vertex 73.0906 -0.109562 0
      vertex 71 -0.109562 0
    endloop
  endfacet
  facet normal 0 0 -1
    outer loop
      vertex 61 10 0
      vertex 73.0906 -0.109562 0
      vertex 71 0 0
    endloop
  endfacet
  facet normal 0 0 -1
    outer loop
      vertex 77.1803 -0.978869 0
      vertex 61 10 0
      vertex 101 10 0
    endloop
  endfacet
  facet normal 0 0 -1
    outer loop
      vertex 61 10 0
      vertex 51 10 0
      vertex 61 85 0
    endloop
  endfacet
  facet normal 0 0 -1
    outer loop
      vertex 71 0 0
      vertex 51 10 0
      vertex 61 10 0
    endloop
  endfacet
  facet normal 0 0 -1
    outer loop
      vertex 0 0 0
      vertex 51 10 0
      vertex 71 0 0
    endloop
  endfacet
  facet normal -0 0 -1
    outer loop
      vertex 51 10 0
      vertex 0 0 0
      vertex 10 10 0
    endloop
  endfacet
  facet normal 0 0 -1
    outer loop
      vertex 0 85 0
      vertex 10 10 0
      vertex 0 0 0
    endloop
  endfacet
  facet normal 0 0 -1
    outer loop
      vertex 10 10 0
      vertex 0 85 0
      vertex 10 85 0
    endloop
  endfacet
  facet normal 0 0 -1
    outer loop
      vertex 31 -50 0
      vertex 71 -49.8357 0
      vertex 71 -50 0
    endloop
  endfacet
  facet normal -0 0 -1
    outer loop
      vertex 71 -49.8357 0
      vertex 31 -50 0
      vertex 71 -40 0
    endloop
  endfacet
  facet normal -0 0 -1
    outer loop
      vertex 71 -40 0
      vertex 31 -50 0
      vertex 31 -40 0
    endloop
  endfacet
  facet normal -0 0 -1
    outer loop
      vertex 61 85 0
      vertex 51 10 0
      vertex 51 85 0
    endloop
  endfacet
  facet normal -1 0 0
    outer loop
      vertex 0 0 0
      vertex 0 85 50
      vertex 0 85 0
    endloop
  endfacet
  facet normal -1 -0 0
    outer loop
      vertex 0 85 50
      vertex 0 0 0
      vertex 0 0 50
    endloop
  endfacet
  facet normal 0 1 -0
    outer loop
      vertex 10 85 0
      vertex 0 85 50
      vertex 10 85 50
    endloop
  endfacet
  facet normal 0 1 0
    outer loop
      vertex 0 85 50
      vertex 10 85 0
      vertex 0 85 0
    endloop
  endfacet
  facet normal 0 -1 0
    outer loop
      vertex 0 0 0
      vertex 71 0 50
      vertex 0 0 50
    endloop
  endfacet
  facet normal 0 -1 -0
    outer loop
      vertex 71 0 50
      vertex 0 0 0
      vertex 71 0 0
    endloop
  endfacet
  facet normal -1 0 0
    outer loop
      vertex 51 10 0
      vertex 51 85 50
      vertex 51 85 0
    endloop
  endfacet
  facet normal -1 -0 0
    outer loop
      vertex 51 85 50
      vertex 51 10 0
      vertex 51 10 50
    endloop
  endfacet
  facet normal 0 1 -0
    outer loop
      vertex 51 10 0
      vertex 10 10 50
      vertex 51 10 50
    endloop
  endfacet
  facet normal 0 1 0
    outer loop
      vertex 10 10 50
      vertex 51 10 0
      vertex 10 10 0
    endloop
  endfacet
  facet normal 1 -0 0
    outer loop
      vertex 61 10 50
      vertex 61 85 0
      vertex 61 85 50
    endloop
  endfacet
  facet normal 1 0 0
    outer loop
      vertex 61 85 0
      vertex 61 10 50
      vertex 61 10 0
    endloop
  endfacet
  facet normal 0 1 -0
    outer loop
      vertex 61 85 0
      vertex 51 85 50
      vertex 61 85 50
    endloop
  endfacet
  facet normal 0 1 0
    outer loop
      vertex 51 85 50
      vertex 61 85 0
      vertex 51 85 0
    endloop
  endfacet
  facet normal 0.866025 -0.5 0
    outer loop
      vertex 95.2705 -37.6336 50
      vertex 98.4064 -32.2021 0
      vertex 98.4064 -32.2021 50
    endloop
  endfacet
  facet normal 0.866025 -0.5 0
    outer loop
      vertex 98.4064 -32.2021 0
      vertex 95.2705 -37.6336 50
      vertex 95.2705 -37.6336 0
    endloop
  endfacet
  facet normal 0.994522 -0.104528 0
    outer loop
      vertex 100.344 -26.2374 50
      vertex 101 -20 0
      vertex 101 -20 50
    endloop
  endfacet
  facet normal 0.994522 -0.104528 0
    outer loop
      vertex 101 -20 0
      vertex 100.344 -26.2374 50
      vertex 100.344 -26.2374 0
    endloop
  endfacet
  facet normal 0 -1 0
    outer loop
      vertex 71 -49.8357 0
      vertex 74.1359 -49.8357 50
      vertex 71 -49.8357 50
    endloop
  endfacet
  facet normal 0 -1 -0
    outer loop
      vertex 74.1359 -49.8357 50
      vertex 71 -49.8357 0
      vertex 74.1359 -49.8357 0
    endloop
  endfacet
  facet normal 0.587786 -0.809017 0
    outer loop
      vertex 86 -45.9808 0
      vertex 91.0739 -42.2943 50
      vertex 86 -45.9808 50
    endloop
  endfacet
  facet normal 0.587786 -0.809017 0
    outer loop
      vertex 91.0739 -42.2943 50
      vertex 86 -45.9808 0
      vertex 91.0739 -42.2943 0
    endloop
  endfacet
  facet normal 0.951057 -0.309017 0
    outer loop
      vertex 98.4064 -32.2021 50
      vertex 100.344 -26.2374 0
      vertex 100.344 -26.2374 50
    endloop
  endfacet
  facet normal 0.951057 -0.309017 0
    outer loop
      vertex 100.344 -26.2374 0
      vertex 98.4064 -32.2021 50
      vertex 98.4064 -32.2021 0
    endloop
  endfacet
  facet normal 0.207911 -0.978148 0
    outer loop
      vertex 74.1359 -49.8357 0
      vertex 80.2705 -48.5317 50
      vertex 74.1359 -49.8357 50
    endloop
  endfacet
  facet normal 0.207911 -0.978148 0
    outer loop
      vertex 80.2705 -48.5317 50
      vertex 74.1359 -49.8357 0
      vertex 80.2705 -48.5317 0
    endloop
  endfacet
  facet normal 0.743145 -0.669131 0
    outer loop
      vertex 91.0739 -42.2943 50
      vertex 95.2705 -37.6336 0
      vertex 95.2705 -37.6336 50
    endloop
  endfacet
  facet normal 0.743145 -0.669131 0
    outer loop
      vertex 95.2705 -37.6336 0
      vertex 91.0739 -42.2943 50
      vertex 91.0739 -42.2943 0
    endloop
  endfacet
  facet normal 0.406737 -0.913545 0
    outer loop
      vertex 80.2705 -48.5317 0
      vertex 86 -45.9808 50
      vertex 80.2705 -48.5317 50
    endloop
  endfacet
  facet normal 0.406737 -0.913545 0
    outer loop
      vertex 86 -45.9808 50
      vertex 80.2705 -48.5317 0
      vertex 86 -45.9808 0
    endloop
  endfacet
  facet normal -0.743145 0.669131 0
    outer loop
      vertex 84.3826 -34.8629 0
      vertex 87.1803 -31.7557 50
      vertex 87.1803 -31.7557 0
    endloop
  endfacet
  facet normal -0.743145 0.669131 0
    outer loop
      vertex 87.1803 -31.7557 50
      vertex 84.3826 -34.8629 0
      vertex 84.3826 -34.8629 50
    endloop
  endfacet
  facet normal -0.406737 -0.913545 0
    outer loop
      vertex 77.1803 -0.978869 0
      vertex 81 -2.67949 50
      vertex 77.1803 -0.978869 50
    endloop
  endfacet
  facet normal -0.406737 -0.913545 -0
    outer loop
      vertex 81 -2.67949 50
      vertex 77.1803 -0.978869 0
      vertex 81 -2.67949 0
    endloop
  endfacet
  facet normal -0.406737 0.913545 0
    outer loop
      vertex 81 -37.3205 0
      vertex 77.1803 -39.0211 50
      vertex 81 -37.3205 50
    endloop
  endfacet
  facet normal -0.406737 0.913545 0
    outer loop
      vertex 77.1803 -39.0211 50
      vertex 81 -37.3205 0
      vertex 77.1803 -39.0211 0
    endloop
  endfacet
  facet normal -0.994522 -0.104529 0
    outer loop
      vertex 91 -20 0
      vertex 90.563 -15.8418 50
      vertex 90.563 -15.8418 0
    endloop
  endfacet
  facet normal -0.994522 -0.104529 0
    outer loop
      vertex 90.563 -15.8418 50
      vertex 91 -20 0
      vertex 91 -20 50
    endloop
  endfacet
  facet normal -0.866026 0.499998 0
    outer loop
      vertex 87.1803 -31.7557 0
      vertex 89.2709 -28.1347 50
      vertex 89.2709 -28.1347 0
    endloop
  endfacet
  facet normal -0.866026 0.499998 0
    outer loop
      vertex 89.2709 -28.1347 50
      vertex 87.1803 -31.7557 0
      vertex 87.1803 -31.7557 50
    endloop
  endfacet
  facet normal -0.994522 0.104529 0
    outer loop
      vertex 90.563 -24.1582 0
      vertex 91 -20 50
      vertex 91 -20 0
    endloop
  endfacet
  facet normal -0.994522 0.104529 0
    outer loop
      vertex 91 -20 50
      vertex 90.563 -24.1582 0
      vertex 90.563 -24.1582 50
    endloop
  endfacet
  facet normal -0.587785 0.809017 0
    outer loop
      vertex 84.3826 -34.8629 0
      vertex 81 -37.3205 50
      vertex 84.3826 -34.8629 50
    endloop
  endfacet
  facet normal -0.587785 0.809017 0
    outer loop
      vertex 81 -37.3205 50
      vertex 84.3826 -34.8629 0
      vertex 81 -37.3205 0
    endloop
  endfacet
  facet normal -0.951056 0.309018 0
    outer loop
      vertex 89.2709 -28.1347 0
      vertex 90.563 -24.1582 50
      vertex 90.563 -24.1582 0
    endloop
  endfacet
  facet normal -0.951056 0.309018 0
    outer loop
      vertex 90.563 -24.1582 50
      vertex 89.2709 -28.1347 0
      vertex 89.2709 -28.1347 50
    endloop
  endfacet
  facet normal -0.207912 0.978148 0
    outer loop
      vertex 77.1803 -39.0211 0
      vertex 73.0906 -39.8904 50
      vertex 77.1803 -39.0211 50
    endloop
  endfacet
  facet normal -0.207912 0.978148 0
    outer loop
      vertex 73.0906 -39.8904 50
      vertex 77.1803 -39.0211 0
      vertex 73.0906 -39.8904 0
    endloop
  endfacet
  facet normal 0 -1 0
    outer loop
      vertex 71 -0.109562 0
      vertex 73.0906 -0.109562 50
      vertex 71 -0.109562 50
    endloop
  endfacet
  facet normal 0 -1 -0
    outer loop
      vertex 73.0906 -0.109562 50
      vertex 71 -0.109562 0
      vertex 73.0906 -0.109562 0
    endloop
  endfacet
  facet normal -0.587785 -0.809017 0
    outer loop
      vertex 81 -2.67949 0
      vertex 84.3826 -5.1371 50
      vertex 81 -2.67949 50
    endloop
  endfacet
  facet normal -0.587785 -0.809017 -0
    outer loop
      vertex 84.3826 -5.1371 50
      vertex 81 -2.67949 0
      vertex 84.3826 -5.1371 0
    endloop
  endfacet
  facet normal -0.207911 -0.978148 0
    outer loop
      vertex 73.0906 -0.109562 0
      vertex 77.1803 -0.978869 50
      vertex 73.0906 -0.109562 50
    endloop
  endfacet
  facet normal -0.207911 -0.978148 -0
    outer loop
      vertex 77.1803 -0.978869 50
      vertex 73.0906 -0.109562 0
      vertex 77.1803 -0.978869 0
    endloop
  endfacet
  facet normal 0 1 -0
    outer loop
      vertex 73.0906 -39.8904 0
      vertex 71 -39.8904 50
      vertex 73.0906 -39.8904 50
    endloop
  endfacet
  facet normal 0 1 0
    outer loop
      vertex 71 -39.8904 50
      vertex 73.0906 -39.8904 0
      vertex 71 -39.8904 0
    endloop
  endfacet
  facet normal -0.951056 -0.309018 0
    outer loop
      vertex 90.563 -15.8418 0
      vertex 89.2709 -11.8653 50
      vertex 89.2709 -11.8653 0
    endloop
  endfacet
  facet normal -0.951056 -0.309018 0
    outer loop
      vertex 89.2709 -11.8653 50
      vertex 90.563 -15.8418 0
      vertex 90.563 -15.8418 50
    endloop
  endfacet
  facet normal -0.866026 -0.499998 0
    outer loop
      vertex 89.2709 -11.8653 0
      vertex 87.1803 -8.24429 50
      vertex 87.1803 -8.24429 0
    endloop
  endfacet
  facet normal -0.866026 -0.499998 0
    outer loop
      vertex 87.1803 -8.24429 50
      vertex 89.2709 -11.8653 0
      vertex 89.2709 -11.8653 50
    endloop
  endfacet
  facet normal -0.743145 -0.669131 0
    outer loop
      vertex 87.1803 -8.24429 0
      vertex 84.3826 -5.1371 50
      vertex 84.3826 -5.1371 0
    endloop
  endfacet
  facet normal -0.743145 -0.669131 0
    outer loop
      vertex 84.3826 -5.1371 50
      vertex 87.1803 -8.24429 0
      vertex 87.1803 -8.24429 50
    endloop
  endfacet
  facet normal 1 -0 0
    outer loop
      vertex 71 -50 50
      vertex 71 -49.8357 0
      vertex 71 -49.8357 50
    endloop
  endfacet
  facet normal 1 0 0
    outer loop
      vertex 71 -49.8357 0
      vertex 71 -50 50
      vertex 71 -50 0
    endloop
  endfacet
  facet normal -1 0 0
    outer loop
      vertex 71 -40 0
      vertex 71 -39.8904 50
      vertex 71 -39.8904 0
    endloop
  endfacet
  facet normal -1 -0 0
    outer loop
      vertex 71 -39.8904 50
      vertex 71 -40 0
      vertex 71 -40 50
    endloop
  endfacet
  facet normal -1 0 0
    outer loop
      vertex 71 -0.109562 0
      vertex 71 0 50
      vertex 71 0 0
    endloop
  endfacet
  facet normal -1 -0 0
    outer loop
      vertex 71 0 50
      vertex 71 -0.109562 0
      vertex 71 -0.109562 50
    endloop
  endfacet
  facet normal 1 -0 0
    outer loop
      vertex 101 -20 50
      vertex 101 10 0
      vertex 101 10 50
    endloop
  endfacet
  facet normal 1 0 0
    outer loop
      vertex 101 10 0
      vertex 101 -20 50
      vertex 101 -20 0
    endloop
  endfacet
  facet normal 0 1 -0
    outer loop
      vertex 101 10 0
      vertex 61 10 50
      vertex 101 10 50
    endloop
  endfacet
  facet normal 0 1 0
    outer loop
      vertex 61 10 50
      vertex 101 10 0
      vertex 61 10 0
    endloop
  endfacet
  facet normal -1 0 0
    outer loop
      vertex 31 -50 0
      vertex 31 -40 50
      vertex 31 -40 0
    endloop
  endfacet
  facet normal -1 -0 0
    outer loop
      vertex 31 -40 50
      vertex 31 -50 0
      vertex 31 -50 50
    endloop
  endfacet
  facet normal 0 -1 0
    outer loop
      vertex 31 -50 0
      vertex 71 -50 50
      vertex 31 -50 50
    endloop
  endfacet
  facet normal 0 -1 -0
    outer loop
      vertex 71 -50 50
      vertex 31 -50 0
      vertex 71 -50 0
    endloop
  endfacet
  facet normal 0 1 -0
    outer loop
      vertex 71 -40 0
      vertex 31 -40 50
      vertex 71 -40 50
    endloop
  endfacet
  facet normal 0 1 0
    outer loop
      vertex 31 -40 50
      vertex 71 -40 0
      vertex 31 -40 0
    endloop
  endfacet
endsolid OpenSCAD_Model
